<svg width="88" height="94" viewBox="0 0 88 94" fill="none" xmlns="http://www.w3.org/2000/svg">
<path d="M44.0006 86.1666C43.1451 86.1666 42.4118 85.9055 41.8006 85.3832C41.1895 84.861 40.7312 84.1756 40.4257 83.327C39.2645 79.6714 37.7979 76.2444 36.0257 73.0458C34.3145 69.8471 31.9007 66.0937 28.784 61.7853C25.6673 57.477 23.1312 53.3645 21.1757 49.4478C19.2812 45.5312 18.334 40.7985 18.334 35.2499C18.334 27.6124 20.809 21.1499 25.759 15.8624C30.7701 10.5096 36.8506 7.83325 44.0006 7.83325C51.1507 7.83325 57.2007 10.5096 62.1507 15.8624C67.1618 21.1499 69.6673 27.6124 69.6673 35.2499C69.6673 41.1902 68.5979 46.1513 66.459 50.1333C64.3812 54.0499 61.9673 57.9339 59.2173 61.7853C55.9173 66.4853 53.4118 70.402 51.7006 73.5353C50.0506 76.6034 48.6756 79.8673 47.5756 83.327C47.2701 84.2409 46.7812 84.959 46.109 85.4812C45.4979 85.9381 44.7951 86.1666 44.0006 86.1666ZM44.0006 72.1645C45.0395 69.9451 46.2006 67.7583 47.484 65.6041C48.8284 63.4499 50.784 60.5777 53.3507 56.9874C55.9784 53.3319 58.1173 49.9701 59.7673 46.902C61.4784 43.7687 62.334 39.8846 62.334 35.2499C62.334 29.8319 60.5312 25.2298 56.9256 21.4437C53.3812 17.5923 49.0729 15.6666 44.0006 15.6666C38.9284 15.6666 34.5895 17.5923 30.984 21.4437C27.4395 25.2298 25.6673 29.8319 25.6673 35.2499C25.6673 39.8846 26.4923 43.7687 28.1423 46.902C29.8534 49.9701 32.0229 53.3319 34.6507 56.9874C37.2173 60.5777 39.1423 63.4499 40.4257 65.6041C41.7701 67.7583 42.9618 69.9451 44.0006 72.1645ZM44.0006 45.0416C46.5673 45.0416 48.7368 44.0951 50.509 42.202C52.2812 40.3089 53.1673 37.9916 53.1673 35.2499C53.1673 32.5082 52.2812 30.1909 50.509 28.2978C48.7368 26.4048 46.5673 25.4583 44.0006 25.4583C41.434 25.4583 39.2645 26.4048 37.4923 28.2978C35.7201 30.1909 34.834 32.5082 34.834 35.2499C34.834 37.9916 35.7201 40.3089 37.4923 42.202C39.2645 44.0951 41.434 45.0416 44.0006 45.0416Z" fill="#1A9F75"/>
</svg>
