<svg width="88" height="95" viewBox="0 0 88 95" fill="none" xmlns="http://www.w3.org/2000/svg">
<path d="M44.0006 87.0834C43.1451 87.0834 42.4118 86.8195 41.8006 86.2917C41.1895 85.764 40.7312 85.0713 40.4257 84.2136C39.2645 80.5192 37.7979 77.0556 36.0257 73.823C34.3145 70.5904 31.9007 66.797 28.784 62.4428C25.6673 58.0886 23.1312 53.9324 21.1757 49.974C19.2812 46.0157 18.334 41.2327 18.334 35.6251C18.334 27.9063 20.809 21.3751 25.759 16.0313C30.7701 10.6216 36.8506 7.91675 44.0006 7.91675C51.1507 7.91675 57.2007 10.6216 62.1507 16.0313C67.1618 21.3751 69.6673 27.9063 69.6673 35.6251C69.6673 41.6286 68.5979 46.6424 66.459 50.6667C64.3812 54.6251 61.9673 58.5504 59.2173 62.4428C55.9173 67.1928 53.4118 71.1511 51.7006 74.3178C50.0506 77.4185 48.6756 80.7171 47.5756 84.2136C47.2701 85.1372 46.7812 85.8629 46.109 86.3907C45.4979 86.8525 44.7951 87.0834 44.0006 87.0834ZM44.0006 72.9324C45.0395 70.6893 46.2006 68.4792 47.484 66.3022C48.8284 64.1251 50.784 61.2223 53.3507 57.5938C55.9784 53.8994 58.1173 50.5018 59.7673 47.4011C61.4784 44.2344 62.334 40.3091 62.334 35.6251C62.334 30.1494 60.5312 25.4983 56.9256 21.672C53.3812 17.7796 49.0729 15.8334 44.0006 15.8334C38.9284 15.8334 34.5895 17.7796 30.984 21.672C27.4395 25.4983 25.6673 30.1494 25.6673 35.6251C25.6673 40.3091 26.4923 44.2344 28.1423 47.4011C29.8534 50.5018 32.0229 53.8994 34.6507 57.5938C37.2173 61.2223 39.1423 64.1251 40.4257 66.3022C41.7701 68.4792 42.9618 70.6893 44.0006 72.9324ZM44.0006 45.5209C46.5673 45.5209 48.7368 44.5643 50.509 42.6511C52.2812 40.7379 53.1673 38.3959 53.1673 35.6251C53.1673 32.8542 52.2812 30.5122 50.509 28.599C48.7368 26.6858 46.5673 25.7292 44.0006 25.7292C41.434 25.7292 39.2645 26.6858 37.4923 28.599C35.7201 30.5122 34.834 32.8542 34.834 35.6251C34.834 38.3959 35.7201 40.7379 37.4923 42.6511C39.2645 44.5643 41.434 45.5209 44.0006 45.5209Z" fill="#E65D0E"/>
</svg>
