<svg width="89" height="94" viewBox="0 0 89 94" fill="none" xmlns="http://www.w3.org/2000/svg">
<path d="M44.4994 86.1666C43.6341 86.1666 42.8924 85.9055 42.2744 85.3832C41.6563 84.861 41.1928 84.1756 40.8837 83.327C39.7094 79.6714 38.2261 76.2444 36.4337 73.0458C34.7032 69.8471 32.2619 66.0937 29.1098 61.7853C25.9577 57.477 23.3928 53.3645 21.415 49.4478C19.499 45.5312 18.541 40.7985 18.541 35.2499C18.541 27.6124 21.0441 21.1499 26.0504 15.8624C31.1184 10.5096 37.2681 7.83325 44.4994 7.83325C51.7306 7.83325 57.8494 10.5096 62.8556 15.8624C67.9237 21.1499 70.4577 27.6124 70.4577 35.2499C70.4577 41.1902 69.3761 46.1513 67.2129 50.1333C65.1115 54.0499 62.6702 57.9339 59.8889 61.7853C56.5514 66.4853 54.0174 70.402 52.2869 73.5353C50.6181 76.6034 49.2275 79.8673 48.115 83.327C47.806 84.2409 47.3115 84.959 46.6316 85.4812C46.0136 85.9381 45.3028 86.1666 44.4994 86.1666ZM44.4994 72.1645C45.55 69.9451 46.7244 67.7583 48.0223 65.6041C49.382 63.4499 51.3598 60.5777 53.9556 56.9874C56.6132 53.3319 58.7764 49.9701 60.4452 46.902C62.1757 43.7687 63.041 39.8846 63.041 35.2499C63.041 29.8319 61.2178 25.2298 57.5712 21.4437C53.9865 17.5923 49.6292 15.6666 44.4994 15.6666C39.3695 15.6666 34.9813 17.5923 31.3348 21.4437C27.75 25.2298 25.9577 29.8319 25.9577 35.2499C25.9577 39.8846 26.7921 43.7687 28.4608 46.902C30.1914 49.9701 32.3855 53.3319 35.0431 56.9874C37.6389 60.5777 39.5858 63.4499 40.8837 65.6041C42.2435 67.7583 43.4487 69.9451 44.4994 72.1645ZM44.4994 45.0416C47.0952 45.0416 49.2893 44.0951 51.0816 42.202C52.874 40.3089 53.7702 37.9916 53.7702 35.2499C53.7702 32.5082 52.874 30.1909 51.0816 28.2978C49.2893 26.4048 47.0952 25.4583 44.4994 25.4583C41.9035 25.4583 39.7094 26.4048 37.9171 28.2978C36.1247 30.1909 35.2285 32.5082 35.2285 35.2499C35.2285 37.9916 36.1247 40.3089 37.9171 42.202C39.7094 44.0951 41.9035 45.0416 44.4994 45.0416Z" fill="#6B4CE6"/>
</svg>
