<svg width="75" height="65" viewBox="0 0 75 65" fill="none" xmlns="http://www.w3.org/2000/svg">
<path d="M53.6364 62.2029V55.5615C53.6364 52.0387 52.2763 48.6602 49.8554 46.1692C47.4345 43.6782 44.151 42.2788 40.7273 42.2788H14.9091C11.4854 42.2788 8.20191 43.6782 5.78099 46.1692C3.36006 48.6602 2 52.0387 2 55.5615V62.2029M73 62.2029V55.5615C72.9979 52.6185 72.0459 49.7595 70.2935 47.4336C68.5411 45.1076 66.0876 43.4463 63.3182 42.7105M50.4091 2.86235C53.1859 3.5939 55.6471 5.25557 57.4047 7.58539C59.1622 9.91521 60.1162 12.7807 60.1162 15.73C60.1162 18.6793 59.1622 21.5448 57.4047 23.8746C55.6471 26.2044 53.1859 27.8661 50.4091 28.5976M40.7273 15.7134C40.7273 23.0492 34.9477 28.9961 27.8182 28.9961C20.6887 28.9961 14.9091 23.0492 14.9091 15.7134C14.9091 8.37754 20.6887 2.43066 27.8182 2.43066C34.9477 2.43066 40.7273 8.37754 40.7273 15.7134Z" stroke="white" stroke-width="4" stroke-linecap="round" stroke-linejoin="round"/>
</svg>
