<svg width="26" height="26" viewBox="0 0 26 26" fill="none" xmlns="http://www.w3.org/2000/svg">
<path d="M8.66658 4.60425C6.27242 4.60425 4.33325 5.41675 4.33325 8.93758V19.5001C4.33325 22.7501 6.27242 23.8334 8.66658 23.8334H17.3333C19.7274 23.8334 21.6666 22.7501 21.6666 19.5001V8.93758C21.6666 5.41675 19.7274 4.60425 17.3333 4.60425M8.66658 4.60425C8.66658 5.27591 8.93739 5.88258 9.38156 6.32674C9.82572 6.77091 10.4324 7.04175 11.1041 7.04175H14.8958C16.2391 7.04175 17.3333 5.94758 17.3333 4.60425M8.66658 4.60425C8.66658 3.26091 9.76075 2.16675 11.1041 2.16675H14.8958C15.5674 2.16675 16.1741 2.43759 16.6183 2.88175C17.0624 3.32592 17.3333 3.93258 17.3333 4.60425M8.66658 14.0834H12.9999M8.66658 18.4167H17.3333" stroke="#AEB8D6" stroke-width="1.5" stroke-linecap="round" stroke-linejoin="round"/>
</svg>
