<svg width="61" height="73" viewBox="0 0 61 73" fill="none" xmlns="http://www.w3.org/2000/svg">
<path d="M58.625 30.25C58.625 52.125 30.5 70.875 30.5 70.875C30.5 70.875 2.375 52.125 2.375 30.25C2.375 22.7908 5.33816 15.6371 10.6126 10.3626C15.8871 5.08816 23.0408 2.125 30.5 2.125C37.9592 2.125 45.1129 5.08816 50.3874 10.3626C55.6618 15.6371 58.625 22.7908 58.625 30.25Z" stroke="white" stroke-width="4" stroke-linecap="round" stroke-linejoin="round"/>
<path d="M30.5 39.625C35.6777 39.625 39.875 35.4277 39.875 30.25C39.875 25.0723 35.6777 20.875 30.5 20.875C25.3223 20.875 21.125 25.0723 21.125 30.25C21.125 35.4277 25.3223 39.625 30.5 39.625Z" stroke="white" stroke-width="4" stroke-linecap="round" stroke-linejoin="round"/>
</svg>
