<svg width="79" height="71" viewBox="0 0 79 71" fill="none" xmlns="http://www.w3.org/2000/svg">
<path d="M39.4998 16.9583C39.4998 13.0243 37.937 9.25137 35.1553 6.46958C32.3735 3.68779 28.6005 2.125 24.6665 2.125H2.4165V57.75H28.3748C31.3254 57.75 34.1551 58.9221 36.2414 61.0084C38.3277 63.0948 39.4998 65.9245 39.4998 68.875M39.4998 16.9583V68.875M39.4998 16.9583C39.4998 13.0243 41.0626 9.25137 43.8444 6.46958C46.6262 3.68779 50.3991 2.125 54.3332 2.125H76.5832V57.75H50.6248C47.6743 57.75 44.8446 58.9221 42.7583 61.0084C40.6719 63.0948 39.4998 65.9245 39.4998 68.875" stroke="#F4F7FE" stroke-width="4" stroke-linecap="round" stroke-linejoin="round"/>
</svg>
